<?xml version="1.0" encoding="UTF-8"?><svg id="Capa_1" xmlns="http://www.w3.org/2000/svg" viewBox="0 0 1080 1080"><defs><style>.cls-1{fill:none;stroke:#fff;stroke-miterlimit:10;stroke-width:3px;}.cls-2{fill:#fff;stroke-width:0px;}</style></defs><path class="cls-2" d="M219.2,461.24h-17.63s-9.3.19-13.37-10.66-24.02-10.66-24.02-10.66c0,0-28.48-1.74-33.9,32.74-5.42,34.49,13.95,49.79,24.61,52.12s33.32,1.16,37.39-22.09l26.93-.58s1.55,47.08-57.73,48.05-58.12-60.45-58.12-60.45c0,0-7.56-73.04,62.19-74.01,0,0,51.15-2.32,53.67,45.53Z"/><path class="cls-2" d="M276.84,444.68c-25.84,0-46.79,23.62-46.79,52.75s20.95,52.75,46.79,52.75,46.79-23.62,46.79-52.75-20.95-52.75-46.79-52.75ZM276.11,527.5c-11.48,0-20.78-13.47-20.78-30.08s9.3-30.08,20.78-30.08,20.78,13.47,20.78,30.08-9.3,30.08-20.78,30.08Z"/><path class="cls-2" d="M334.09,546.39h25.86v-63.9c0-.67.07-1.34.23-1.99.5-2.02,1.82-5.71,5.29-8.8,4.52-4.02,9.66-4.32,11.04-4.36,1.41-.08,6.11-.16,10.66,3.05,3.13,2.21,4.79,5,5.63,6.84.39.86.57,1.8.57,2.74v66.41h26.16v-64.33c0-2.82,1.01-5.57,2.93-7.65,1.06-1.15,2.4-2.35,4.05-3.44,4.54-3,9-3.52,11.04-3.63,1.95.18,6.61.86,11.04,4.36,1.09.86,2,1.76,2.77,2.65,2.01,2.32,3.04,5.33,3.04,8.4v54.3c0,5.16,4.19,9.35,9.35,9.35h16.03v-68.68s-1.36-31.97-41.27-33.03c0,0-17.6-1.39-29.59,6.58-1.26.84-2.84,1.01-4.22.39-8.91-4.02-42.53-16.76-63.46,8.95-4.74,5.83-7.16,13.2-7.16,20.72v65.08Z"/><path class="cls-2" d="M586.06,474.61c-2.83-10.8-10.28-19.92-20.51-24.42-10.37-4.56-26-6.93-48.38-.19,0,0-18.79,6.01-22.67,36.04v100.55h15.33c5.58,0,10.1-4.52,10.1-10.1v-41.24s22.81,30.03,53.22,5.42c21.85-17.68,17.23-49.54,12.89-66.07ZM541.66,527.12c-12,0-21.72-13.49-21.72-30.13s9.72-30.13,21.72-30.13,21.72,13.49,21.72,30.13-9.72,30.13-21.72,30.13Z"/><path class="cls-2" d="M749.67,473.06h-8.72s-18.41.58-20.15,14.92v59.28h-26.16v-61.61s3.68-42.04,55.02-38.94v26.35Z"/><path class="cls-2" d="M683.09,472.88c-.06-7.18-3.27-14.03-8.92-18.46-6.36-4.99-16.97-9.85-34.28-10.22-36.31-.77-38.63,29.06-38.63,29.06h24.99s2.86-12.01,24.17-6.78c0,0,12.3,4.82,5.52,12.57-4.8,5.49-12.08,6.05-15.67,5.89-2.44-.11-4.89-.04-7.3.34-12.28,1.93-42.88,9.76-35.4,39.52,9.3,37,71.68,34.68,85.44-5.62.43-1.25.2-31.89.07-46.3ZM628.48,526.49c-12.21-5.38-3-22.04,7.99-23.54,9.94-1.36,20.92-6.04,20.92-6.04,5.96,26.8-16.71,34.96-28.92,29.58Z"/><path class="cls-2" d="M844.28,472.88c-.07-7.18-3.27-14.03-8.92-18.46-6.36-4.99-16.97-9.85-34.28-10.22-36.31-.77-38.63,29.06-38.63,29.06h24.99s2.86-12.01,24.17-6.78c0,0,12.3,4.82,5.52,12.57-4.8,5.49-12.08,6.05-15.67,5.89-2.44-.11-4.89-.04-7.3.34-12.28,1.93-42.88,9.76-35.4,39.52,9.3,37,71.68,34.68,85.44-5.62.43-1.25.2-31.89.07-46.3ZM789.67,526.49c-12.21-5.38-2.03-22.62,7.99-23.54s20.92-6.04,20.92-6.04c5.96,26.8-16.71,34.96-28.92,29.58Z"/><path class="cls-1" d="M601.07,563.73v112.56c0,6.53,5.29,11.82,11.82,11.82h24.22v-15.69h-7.1c-3.92,0-7.1-3.18-7.1-7.1v-58.58l4.05-.11c5.65-.15,10.16-4.78,10.16-10.44v-3.6l-14.2.39v-17.47c0-6.51-5.28-11.79-11.79-11.79h-10.04Z"/><path class="cls-1" d="M334.09,690.03h25.86v-63.9c0-.67.07-1.34.23-1.99.5-2.02,1.82-5.71,5.29-8.8,4.52-4.02,9.66-4.32,11.04-4.36,1.41-.08,6.11-.16,10.66,3.05,3.13,2.21,4.79,5,5.63,6.84.39.86.57,1.8.57,2.74v66.41h26.16v-64.33c0-2.82,1.01-5.57,2.93-7.65,1.06-1.15,2.4-2.35,4.05-3.44,4.54-3,9-3.52,11.04-3.63,1.95.18,6.61.86,11.04,4.36,1.09.86,2,1.76,2.77,2.65,2.01,2.32,3.04,5.33,3.04,8.4v54.3c0,5.16,4.19,9.35,9.35,9.35h16.03v-68.68s-1.36-31.97-41.27-33.03c0,0-17.6-1.39-29.59,6.58-1.26.84-2.84,1.01-4.22.39-8.91-4.02-42.53-16.76-63.46,8.95-4.74,5.83-7.16,13.2-7.16,20.72v65.08Z"/><ellipse class="cls-1" cx="540.94" cy="642.78" rx="20.78" ry="30.08"/><ellipse class="cls-1" cx="541.66" cy="642.79" rx="46.79" ry="52.75"/><ellipse class="cls-1" cx="693.92" cy="640.97" rx="20.78" ry="30.08"/><ellipse class="cls-1" cx="694.64" cy="640.98" rx="46.79" ry="52.75"/><path class="cls-1" d="M806.69,617.13h-8.72s-18.41.58-20.15,14.92v59.28h-26.16v-61.61s3.68-42.04,55.02-38.94v26.35Z"/><path class="cls-1" d="M904.42,623.7h-19.04s-9.3-.44-12.06-6.68c0,0-5.62-12.39-22.57-4.94-2.16.95-3.4,3.28-2.82,5.56.83,3.26,4.57,7.35,17.54,8.68,22.67,2.32,32.26,10.32,32.26,10.32,0,0,34.24,32.3-16.9,57.1,0,0-65.48,17.63-66.26-37.19l29.84-.1s-.77,14.43,16.47,14.53,16.27-5.62,16.27-5.62c0,0,2.42-4.46-10.66-9.49,0,0-52.6-2.32-48.92-34.29,0,0-1.94-37.3,47.27-34.97,0,0,40.78,1.65,39.57,37.1Z"/></svg>