<svg width="2077" height="607" viewBox="0 0 2077 607" fill="none" xmlns="http://www.w3.org/2000/svg">
<g filter="url(#filter0_i_45_104)">
<path d="M439.435 595.999L161.201 476.848L333.379 440.31L333.378 481.41L439.435 595.999Z" fill="url(#paint0_linear_45_104)"/>
</g>
<g filter="url(#filter1_d_45_104)">
<path d="M163.203 221.154L161.201 476.834L635.689 376.388L847.907 333.014C877.686 325.379 885.568 313.909 885.946 282.791V47.6562L207.249 177.779C173.498 182.797 164.097 192.583 163.203 221.154Z" fill="#404042"/>
</g>
<g filter="url(#filter2_d_45_104)">
<path d="M412.93 468.855L438.785 595.544L333.378 482.676V397.449L633.687 339.863C639.088 398.57 635.117 422.766 603.855 429.697L412.93 468.855Z" fill="url(#paint1_linear_45_104)"/>
</g>
<g filter="url(#filter3_di_45_104)">
<path d="M413.06 468.617L333.378 482.774L438.687 595.547L413.06 468.617Z" fill="url(#paint2_linear_45_104)"/>
</g>
<path d="M598.24 454.325C597.155 454.531 596.442 455.578 596.648 456.663C596.855 457.748 597.902 458.461 598.987 458.255L598.24 454.325ZM598.613 456.29L598.987 458.255L707.098 437.709L706.724 435.744L706.351 433.779L598.24 454.325L598.613 456.29Z" fill="#404042"/>
<path d="M133.814 538.781C132.724 538.959 131.984 539.987 132.162 541.077C132.339 542.167 133.367 542.907 134.457 542.729L133.814 538.781ZM134.136 540.755L134.457 542.729L190.515 533.598L190.193 531.624L189.872 529.65L133.814 538.781L134.136 540.755Z" fill="#404042"/>
<path d="M189.832 109.61C188.745 109.81 188.027 110.853 188.226 111.939C188.426 113.025 189.469 113.744 190.555 113.544L189.832 109.61ZM190.193 111.577L190.555 113.544L438.81 67.8869L438.448 65.9199L438.087 63.9529L189.832 109.61L190.193 111.577Z" fill="#404042"/>
<path d="M814.391 374.439C813.314 374.685 812.64 375.757 812.885 376.834C813.131 377.911 814.203 378.585 815.28 378.339L814.391 374.439ZM814.835 376.389L815.28 378.339L975.445 341.813L975 339.863L974.555 337.913L814.391 374.439L814.835 376.389Z" fill="#FB003E"/>
<path d="M2 248.548L86.0864 230.285" stroke="#FB003E" stroke-width="4" stroke-linecap="round"/>
<path d="M814.391 36.5758C813.314 36.8214 812.64 37.8935 812.885 38.9705C813.131 40.0474 814.203 40.7213 815.28 40.4757L814.391 36.5758ZM814.835 38.5258L815.28 40.4757L975.445 3.94994L975 2L974.555 0.050063L814.391 36.5758L814.835 38.5258Z" fill="#FB003E"/>
<path d="M30.0287 435.743L190.193 399.217" stroke="#FB003E" stroke-width="4" stroke-linecap="round" stroke-linejoin="round"/>
<path d="M422.734 452.316C422.394 452.384 422.112 452.304 421.888 452.077C421.691 451.844 421.531 451.332 421.41 450.54L413.323 397.704C413.109 396.305 413.342 395.538 414.023 395.403L419.992 394.215C420.542 394.106 421.092 394.526 421.642 395.477L440.473 428.884C440.553 429.058 440.624 428.989 440.684 428.678L440.669 428.314L435.314 393.327C435.1 391.929 435.346 391.159 436.053 391.019L440.726 390.089C441.38 389.958 441.815 390.593 442.029 391.991L450.14 444.986C450.261 445.778 450.262 446.308 450.141 446.577C450.016 446.819 449.783 446.974 449.443 447.042L445.202 447.886C444.94 447.938 444.628 447.837 444.265 447.583C443.929 447.323 443.633 446.974 443.377 446.536L422.612 410.537C422.475 410.347 422.406 410.429 422.406 410.782C422.392 410.866 422.393 410.961 422.409 411.067L428.243 449.181C428.364 449.972 428.353 450.518 428.21 450.818C428.094 451.114 427.852 451.298 427.486 451.371L422.734 452.316ZM460.472 444.806C460.131 444.874 459.868 444.831 459.683 444.678C459.494 444.498 459.345 444.052 459.236 443.339L451.033 389.75C450.928 389.064 450.938 388.6 451.063 388.358C451.188 388.115 451.42 387.96 451.76 387.893L472.416 383.782C472.625 383.74 472.8 383.733 472.939 383.76C473.078 383.786 473.205 383.911 473.319 384.133C473.46 384.349 473.567 384.695 473.64 385.17L474.119 388.297C474.22 388.956 474.208 389.407 474.083 389.65C473.954 389.866 473.72 390.007 473.379 390.075L459.949 392.748C459.635 392.81 459.545 393.277 459.678 394.148L462.125 410.137C462.162 410.375 462.237 410.604 462.352 410.826C462.493 411.043 462.603 411.143 462.681 411.128L473.48 408.979C474.135 408.848 474.555 409.39 474.741 410.604L475.207 413.651C475.393 414.865 475.159 415.537 474.504 415.667L463.745 417.809C463.64 417.829 463.555 417.982 463.491 418.267C463.453 418.546 463.454 418.818 463.494 419.082L466.263 437.169L480.282 434.379C480.517 434.332 480.705 434.322 480.844 434.349C480.983 434.376 481.11 434.5 481.224 434.722C481.366 434.938 481.472 435.284 481.545 435.759L482.024 438.886C482.125 439.545 482.1 439.999 481.949 440.247C481.82 440.462 481.585 440.604 481.245 440.672L460.472 444.806ZM495.146 437.906C494.457 437.988 493.847 437.172 493.315 435.456L478.332 385.419C478.239 385.166 478.156 384.801 478.083 384.326C477.918 383.245 478.045 382.662 478.463 382.579L483.608 381.555C483.922 381.492 484.248 381.686 484.587 382.135C484.925 382.584 485.211 383.221 485.445 384.044L495.553 420.736L495.124 382.24C495.103 381.402 495.192 380.745 495.389 380.271C495.608 379.765 495.875 379.481 496.189 379.418L500.43 378.574C501.123 378.518 501.71 379.271 502.192 380.834L513.66 417.949L512.182 378.683C512.161 377.844 512.23 377.15 512.389 376.602C512.574 376.049 512.824 375.741 513.138 375.678L517.575 374.795C517.994 374.712 518.286 375.211 518.452 376.293C518.505 376.636 518.522 377.013 518.504 377.424L519.428 430.259C519.437 432.079 519.131 433.078 518.511 433.256L513.72 434.209C513.032 434.292 512.419 433.462 511.883 431.72L500.34 395.966L500.304 434.065C500.353 435.795 500.074 436.789 499.466 437.046L495.146 437.906ZM536.013 370.473C540.935 369.494 545.047 370.538 548.349 373.606C548.663 373.897 548.857 374.28 548.93 374.755C549.071 375.678 548.828 376.732 548.2 377.918C547.598 379.098 547.036 379.74 546.512 379.844C546.355 379.875 546.229 379.846 546.134 379.756C543.368 377.37 540.375 376.498 537.155 377.139C535.349 377.498 534.015 378.566 533.154 380.341C532.288 382.09 532.025 384.073 532.364 386.289C532.684 388.374 533.415 389.982 534.56 391.114C535.704 392.245 537.24 393.204 539.168 393.99L544.652 396.242C550.439 398.625 553.837 403.115 554.847 409.711C555.586 414.54 554.972 418.727 553.006 422.272C551.04 425.817 548.002 427.999 543.891 428.817C538.341 429.921 533.6 428.377 529.667 424.184C529.474 423.978 529.349 423.69 529.292 423.321C529.151 422.397 529.364 421.322 529.931 420.094C530.521 418.835 531.156 418.137 531.837 418.002C532.098 417.95 532.352 418.022 532.598 418.217C536.107 421.407 539.525 422.671 542.849 422.009C544.891 421.603 546.367 420.494 547.277 418.681C548.182 416.842 548.447 414.696 548.072 412.242C547.732 410.026 547 408.323 545.873 407.133C544.743 405.917 543.141 404.877 541.066 404.012L535.518 401.608C534.306 401.088 533.233 400.513 532.3 399.883C531.368 399.253 530.437 398.459 529.508 397.502C528.601 396.514 527.824 395.309 527.175 393.888C526.548 392.436 526.095 390.8 525.816 388.979C525.089 384.23 525.638 380.151 527.464 376.743C529.315 373.329 532.165 371.239 536.013 370.473Z" fill="white"/>
<path d="M226.24 380.345C225.346 380.523 224.636 380.399 224.11 379.973C223.648 379.535 223.279 378.414 223.004 376.612L203.072 246.391C202.786 244.524 202.795 243.296 203.1 242.705C203.468 242.101 204.099 241.71 204.993 241.532L240.048 234.556C258.246 230.935 269.3 241.898 273.21 267.447C275.033 279.353 273.467 288.252 268.513 294.145C268.027 294.839 267.799 295.282 267.828 295.475C267.858 295.668 268.241 296.023 268.978 296.539C277.836 300.679 283.467 310.599 285.87 326.302C287.052 334.025 287.259 340.748 286.49 346.471C285.785 352.182 284.168 356.88 281.64 360.567C279.166 364.176 276.117 367.037 272.492 369.151C268.858 371.201 264.519 372.727 259.475 373.731L226.24 380.345ZM241.647 362.358L253.81 359.938C259.429 358.819 263.407 355.574 265.743 350.202C268.143 344.817 268.717 338.038 267.466 329.865C266.353 322.593 264.064 316.881 260.6 312.73C257.135 308.578 253.263 306.928 248.985 307.78L233.757 310.81C232.863 310.988 232.534 311.849 232.77 313.394L240.01 360.694C240.207 361.982 240.753 362.536 241.647 362.358ZM231.555 296.427L247.454 293.263C250.966 292.564 253.51 290.267 255.085 286.373C256.65 282.414 256.975 277.442 256.059 271.457C254.857 263.606 252.578 257.958 249.222 254.515C245.919 250.994 241.906 249.704 237.181 250.644L224.921 253.084C224.027 253.262 223.688 254.059 223.905 255.475L229.919 294.763C230.116 296.05 230.661 296.605 231.555 296.427ZM311.865 363.305C311.035 363.47 310.389 363.334 309.927 362.895C309.456 362.392 309.082 361.24 308.806 359.438L288.904 229.409C288.608 227.478 288.613 226.218 288.917 225.626C289.221 225.035 289.788 224.657 290.619 224.492L322.8 218.088C326.823 217.287 330.273 216.833 333.152 216.724C336.094 216.603 339.179 216.983 342.407 217.866C345.634 218.749 348.344 220.332 350.535 222.615C352.791 224.885 354.843 228.19 356.692 232.531C358.604 236.858 360.053 242.24 361.038 248.675C361.777 253.502 362.071 257.787 361.92 261.531C361.76 265.21 361.149 268.316 360.089 270.848C359.019 273.315 357.753 275.358 356.29 276.975C354.891 278.58 353.11 280.062 350.95 281.42C350.788 281.651 350.721 281.863 350.751 282.057C350.781 282.25 350.901 282.391 351.112 282.482C353.578 283.119 355.602 283.876 357.184 284.755C358.83 285.621 360.56 287.034 362.373 288.995C364.177 290.89 365.752 293.66 367.1 297.305C368.447 300.949 369.64 305.52 370.679 311.016C371.702 315.985 373.593 327.479 376.351 345.498C376.844 348.716 376.516 350.439 375.366 350.668C365.479 352.702 360.408 353.744 360.152 353.795C359.131 353.998 358.366 352.659 357.859 349.775C357.79 349.325 356.495 342.155 353.975 328.266C351.454 314.378 349.808 306.416 349.036 304.381C348.44 301.781 347.563 299.701 346.403 298.141C345.297 296.504 343.983 295.44 342.46 294.947C340.991 294.377 339.566 294.097 338.186 294.106C336.796 294.051 335.239 294.196 333.515 294.539L319.818 297.264C319.116 297.404 318.873 298.182 319.09 299.598L327.674 355.683C327.95 357.485 327.941 358.713 327.646 359.369C327.342 359.96 326.775 360.338 325.945 360.503L311.865 363.305ZM317.418 282.224L329.773 279.766C340.436 277.643 344.571 268.763 342.178 253.125C340.907 244.823 338.552 239.324 335.112 236.626C331.727 233.852 326.618 233.144 319.786 234.504L310.495 236.353C309.793 236.492 309.54 237.206 309.737 238.493L316.061 279.809C316.327 281.546 316.779 282.351 317.418 282.224ZM400.364 345.693C399.534 345.858 398.893 345.754 398.441 345.38C397.979 344.941 397.615 343.853 397.349 342.115L377.344 211.411C377.088 209.738 377.112 208.606 377.416 208.015C377.72 207.423 378.287 207.045 379.118 206.88L429.497 196.854C430.008 196.753 430.432 196.734 430.771 196.8C431.11 196.865 431.42 197.168 431.7 197.709C432.044 198.237 432.305 199.081 432.482 200.239L433.649 207.865C433.896 209.474 433.867 210.574 433.562 211.165C433.248 211.692 432.676 212.038 431.846 212.203L399.09 218.722C398.324 218.874 398.103 220.012 398.428 222.136L404.397 261.135C404.486 261.714 404.67 262.274 404.951 262.815C405.295 263.344 405.563 263.589 405.754 263.551L432.093 258.309C433.689 257.991 434.714 259.313 435.167 262.273L436.305 269.706C436.758 272.666 436.186 274.305 434.59 274.623L408.347 279.845C408.091 279.896 407.885 280.269 407.728 280.963C407.635 281.645 407.638 282.308 407.737 282.951L414.489 327.066L448.682 320.262C449.256 320.147 449.713 320.123 450.052 320.188C450.391 320.253 450.701 320.556 450.981 321.097C451.325 321.626 451.586 322.469 451.763 323.627L452.93 331.253C453.176 332.862 453.115 333.969 452.747 334.572C452.433 335.099 451.861 335.445 451.031 335.61L400.364 345.693ZM465.398 332.751C464.44 332.942 463.818 332.104 463.532 330.238L463.281 328.597C463.153 327.76 463.101 327.207 463.126 326.937L465.099 194.743C465.137 191.552 466.072 189.708 467.904 189.211L487.347 185.342C489.154 185.115 490.55 186.495 491.534 189.482L532.278 313.175C532.307 313.368 532.393 313.715 532.536 314.218C532.742 314.707 532.875 315.145 532.934 315.531C533.057 315.904 533.138 316.22 533.178 316.477C533.454 318.279 533.049 319.288 531.963 319.504L516.16 322.649C514.628 322.954 513.436 321.832 512.585 319.282L505.274 295.372C504.865 293.994 504.406 293.356 503.895 293.458L480.717 298.07C480.27 298.159 480.032 298.969 480.003 300.5L479.718 325.723C479.709 327.383 479.557 328.541 479.263 329.196C478.959 329.787 478.423 330.159 477.657 330.311L465.398 332.751ZM481.647 285.451L501.186 281.563C501.633 281.474 501.768 280.85 501.591 279.692C501.531 279.306 501.423 279.029 501.266 278.861L480.392 206.322C480.26 205.884 480.129 205.678 480.002 205.703C479.81 205.741 479.712 205.96 479.707 206.359L479.893 283.015C479.898 283.478 479.91 283.774 479.93 283.903C480.117 285.126 480.69 285.642 481.647 285.451ZM551.119 315.692C549.523 316.01 548.459 314.431 547.927 310.956L528.276 182.568C527.744 179.093 528.276 177.197 529.872 176.879L543.856 174.096C545.516 173.766 546.612 175.338 547.144 178.813L556.881 242.428L570.565 173.854C571.212 170.343 572.334 168.429 573.93 168.111L588.105 165.29C589.446 165.023 590.23 165.63 590.456 167.11C590.594 168.011 590.546 168.982 590.31 170.024L576.233 234.1C576.023 235.734 575.982 236.969 576.11 237.805C576.238 238.642 576.503 239.518 576.907 240.432L611.221 298.26C611.845 299.33 612.227 300.315 612.364 301.216C612.591 302.696 612.289 303.519 611.459 303.684L597.476 306.467C595.752 306.81 593.995 305.435 592.206 302.343L557.671 246.946L566.92 307.375C567.432 310.721 566.827 312.566 565.103 312.909L551.119 315.692ZM629.274 300.139C628.699 300.253 628.242 300.278 627.903 300.212C627.555 300.083 627.198 299.69 626.835 299.033C626.535 298.363 626.286 297.384 626.089 296.097L606.231 166.358C605.946 164.492 605.95 163.231 606.245 162.576C606.603 161.907 607.197 161.491 608.027 161.326L622.107 158.524C622.617 158.422 623.047 158.436 623.396 158.566C623.735 158.631 624.054 158.998 624.354 159.668C624.718 160.325 624.998 161.297 625.195 162.584L645.053 292.323C645.339 294.19 645.335 295.45 645.04 296.106C644.746 296.761 644.183 297.172 643.353 297.337L629.274 300.139ZM670.363 291.962C669.533 292.127 668.845 291.932 668.299 291.378C667.818 290.81 667.429 289.561 667.134 287.631L647.409 158.76C646.887 155.35 647.456 153.479 649.116 153.149L663.674 150.251C665.015 149.985 666.357 151.011 667.698 153.33L713.627 234.809C713.824 235.234 713.996 235.067 714.143 234.309L714.106 233.421L701.045 148.087C700.522 144.676 701.123 142.799 702.847 142.456L714.245 140.188C715.841 139.87 716.901 141.416 717.423 144.827L737.207 274.084C737.502 276.014 737.503 277.307 737.208 277.963C736.904 278.554 736.337 278.932 735.507 279.097L725.163 281.156C724.524 281.283 723.763 281.036 722.878 280.417C722.058 279.784 721.335 278.933 720.711 277.864L670.064 190.062C669.729 189.598 669.563 189.797 669.563 190.659C669.529 190.865 669.531 191.096 669.571 191.354L683.799 284.314C684.095 286.245 684.068 287.576 683.72 288.309C683.435 289.029 682.846 289.478 681.952 289.655L670.363 291.962ZM824.993 262.781C822.567 263.264 820.66 261.554 819.274 257.652C819.264 257.588 818.433 255.167 816.78 250.39C815.118 245.548 814.233 242.773 814.124 242.065C814.026 241.422 813.881 241.119 813.689 241.157C813.498 241.195 813.35 241.523 813.248 242.14C813.265 249.564 811.745 255.536 808.687 260.058C805.692 264.566 801.226 267.411 795.287 268.593C792.414 269.165 789.767 269.493 787.345 269.577C784.923 269.661 782.278 269.358 779.409 268.669C776.594 267.903 774.007 266.694 771.649 265.041C769.29 263.388 766.846 260.957 764.315 257.747C761.848 254.524 759.606 250.627 757.59 246.054C755.628 241.405 753.723 235.617 751.873 228.69C750.023 221.764 748.424 213.892 747.074 205.075C745.675 195.937 744.871 187.675 744.662 180.29C744.517 172.891 744.804 166.6 745.524 161.417C746.308 156.221 747.61 151.618 749.431 147.609C751.252 143.599 753.196 140.394 755.263 137.993C757.384 135.515 760.021 133.399 763.173 131.644C766.316 129.825 769.236 128.481 771.932 127.613C774.629 126.745 777.797 125.949 781.436 125.224C784.118 124.691 787.078 124.467 790.315 124.552C793.616 124.624 796.256 124.895 798.236 125.363C798.31 125.414 798.452 125.486 798.663 125.576C798.938 125.654 799.159 125.809 799.327 126.041C799.484 126.209 799.597 126.518 799.666 126.968L801.483 138.842C801.621 139.743 801.435 140.244 800.924 140.346C800.86 140.358 800.462 140.338 799.73 140.285C799.062 140.219 798.134 140.171 796.945 140.143C795.81 140.037 794.553 139.989 793.172 139.998C791.856 139.995 790.449 140.043 788.951 140.142C787.452 140.241 786.097 140.412 784.884 140.653C781.499 141.326 778.648 142.259 776.33 143.449C774.002 144.576 771.766 146.513 769.62 149.261C767.465 151.945 765.921 155.402 764.99 159.632C764.058 163.863 763.636 169.484 763.722 176.496C763.808 183.509 764.58 191.777 766.038 201.302C767.417 210.311 768.97 218.093 770.697 224.646C772.414 231.134 774.157 236.292 775.927 240.117C777.697 243.943 779.663 246.901 781.825 248.99C784.051 251.067 786.159 252.372 788.149 252.904C790.192 253.36 792.459 253.34 794.949 252.844C797.887 252.26 800.18 250.908 801.83 248.789C803.543 246.658 804.603 243.695 805.009 239.9C805.479 236.093 805.544 232.002 805.203 227.626C804.926 223.238 804.295 217.827 803.31 211.391C802.867 208.495 802.358 207.104 801.783 207.219L790.96 209.373C790.386 209.487 789.897 209.518 789.494 209.466C789.145 209.336 788.762 208.981 788.344 208.401C787.991 207.809 787.725 206.933 787.548 205.775L786.336 197.859C786.07 196.121 786.121 194.951 786.489 194.347C786.912 193.666 787.538 193.243 788.368 193.078L814.132 187.951C815.792 187.62 816.928 189.45 817.538 193.44L827.068 255.703C827.364 257.634 827.286 259.274 826.835 260.624C826.373 261.909 825.76 262.628 824.993 262.781Z" fill="white"/>
<path d="M1267.72 209C1267 209 1266.45 208.725 1266.07 208.175C1265.74 207.625 1265.57 206.524 1265.57 204.874V94.7104C1265.57 91.7948 1266.29 90.3369 1267.72 90.3369H1280.26C1281.42 90.3369 1282.41 91.4097 1283.23 93.5552L1311.21 168.73C1311.32 169.116 1311.48 169.006 1311.7 168.4L1311.78 167.658V94.7104C1311.78 91.7948 1312.53 90.3369 1314.01 90.3369H1323.83C1325.21 90.3369 1325.89 91.7948 1325.89 94.7104V205.204C1325.89 206.854 1325.73 207.927 1325.4 208.422C1325.07 208.862 1324.55 209.083 1323.83 209.083H1314.92C1314.37 209.083 1313.76 208.752 1313.1 208.092C1312.5 207.432 1312 206.607 1311.62 205.617L1280.51 124.417C1280.29 123.977 1280.12 124.115 1280.01 124.83C1279.96 124.995 1279.93 125.188 1279.93 125.408V204.874C1279.93 206.524 1279.74 207.625 1279.35 208.175C1279.02 208.725 1278.47 209 1277.7 209H1267.72ZM1373.43 197.2C1377.28 197.2 1380.22 195.907 1382.25 193.321C1384.29 190.681 1385.78 185.95 1386.71 179.128C1387.65 172.251 1388.11 162.239 1388.11 149.091C1388.11 136.383 1387.67 126.756 1386.79 120.209C1385.91 113.662 1384.46 109.069 1382.42 106.428C1380.44 103.733 1377.47 102.385 1373.51 102.385C1369.66 102.385 1366.69 103.76 1364.6 106.511C1362.56 109.206 1361.1 113.855 1360.22 120.457C1359.34 127.058 1358.9 136.603 1358.9 149.091C1358.9 162.129 1359.37 172.086 1360.3 178.963C1361.24 185.785 1362.7 190.543 1364.68 193.239C1366.71 195.879 1369.63 197.2 1373.43 197.2ZM1373.51 210.238C1368.94 210.238 1365.06 209.743 1361.87 208.752C1358.74 207.762 1355.88 205.974 1353.29 203.389C1350.7 200.748 1348.67 197.117 1347.18 192.496C1345.7 187.875 1344.54 182.044 1343.72 175.002C1342.95 167.905 1342.56 159.268 1342.56 149.091C1342.56 140.949 1342.81 133.797 1343.31 127.636C1343.86 121.474 1344.71 116.166 1345.86 111.709C1347.07 107.253 1348.48 103.568 1350.07 100.652C1351.67 97.7362 1353.68 95.4256 1356.1 93.7202C1358.52 91.9598 1361.1 90.7495 1363.85 90.0894C1366.6 89.3742 1369.82 89.0166 1373.51 89.0166C1377.96 89.0166 1381.76 89.5392 1384.9 90.5845C1388.09 91.5747 1390.97 93.3626 1393.56 95.9482C1396.15 98.5339 1398.21 102.11 1399.75 106.676C1401.29 111.187 1402.44 116.936 1403.21 123.922C1404.04 130.854 1404.45 139.243 1404.45 149.091C1404.45 159.323 1404.07 167.988 1403.3 175.084C1402.53 182.181 1401.4 188.04 1399.91 192.661C1398.43 197.282 1396.39 200.886 1393.81 203.471C1391.22 206.002 1388.33 207.762 1385.14 208.752C1382.01 209.743 1378.13 210.238 1373.51 210.238ZM1433.09 209C1432.43 209 1431.9 208.752 1431.52 208.257C1431.19 207.707 1431.02 206.634 1431.02 205.039V105.686C1431.02 104.31 1430.72 103.623 1430.12 103.623H1415.76C1415.21 103.623 1414.8 103.595 1414.52 103.54C1414.3 103.43 1414.08 103.155 1413.86 102.715C1413.69 102.22 1413.61 101.477 1413.61 100.487V93.9678C1413.61 92.4824 1413.78 91.5197 1414.11 91.0796C1414.44 90.5845 1414.99 90.3369 1415.76 90.3369H1462.38C1463.1 90.3369 1463.62 90.5845 1463.95 91.0796C1464.28 91.5197 1464.44 92.4824 1464.44 93.9678V100.487C1464.44 101.862 1464.28 102.742 1463.95 103.127C1463.67 103.458 1463.15 103.623 1462.38 103.623H1448.27C1447.67 103.623 1447.36 104.31 1447.36 105.686V205.039C1447.36 206.689 1447.17 207.762 1446.79 208.257C1446.46 208.752 1445.93 209 1445.22 209H1433.09ZM1478.23 209C1477.73 209 1477.34 208.945 1477.07 208.835C1476.79 208.67 1476.55 208.285 1476.33 207.68C1476.16 207.075 1476.08 206.222 1476.08 205.122V94.2153C1476.08 92.62 1476.24 91.5747 1476.57 91.0796C1476.96 90.5845 1477.51 90.3369 1478.23 90.3369H1490.36C1490.8 90.3369 1491.15 90.4194 1491.43 90.5845C1491.7 90.6945 1491.92 91.0521 1492.09 91.6572C1492.31 92.2624 1492.42 93.1151 1492.42 94.2153V205.122C1492.42 206.717 1492.25 207.762 1491.92 208.257C1491.59 208.752 1491.07 209 1490.36 209H1478.23ZM1542.67 210.238C1539.81 210.238 1537.31 210.1 1535.16 209.825C1533.07 209.55 1530.79 208.945 1528.31 208.01C1525.84 207.02 1523.72 205.672 1521.96 203.966C1520.26 202.261 1518.52 199.895 1516.76 196.87C1515.06 193.844 1513.68 190.241 1512.64 186.06C1511.59 181.824 1510.74 176.652 1510.08 170.546C1509.42 164.384 1509.09 157.398 1509.09 149.586C1509.09 139.023 1509.72 129.946 1510.99 122.354C1512.31 114.763 1513.96 108.849 1515.94 104.613C1517.92 100.377 1520.48 97.0485 1523.61 94.6279C1526.8 92.2074 1529.83 90.667 1532.69 90.0068C1535.6 89.3467 1539.07 89.0166 1543.09 89.0166C1548.2 89.0166 1552.41 89.7868 1555.71 91.3271C1555.77 91.3822 1555.85 91.4647 1555.96 91.5747C1556.07 91.6297 1556.15 91.7122 1556.21 91.8223C1556.32 91.8773 1556.4 92.0148 1556.45 92.2349C1556.51 92.3999 1556.54 92.62 1556.54 92.895V102.88C1556.54 103.65 1556.34 104.035 1555.96 104.035C1555.9 104.035 1555.68 103.98 1555.3 103.87C1554.97 103.76 1554.47 103.623 1553.81 103.458C1553.15 103.292 1552.44 103.127 1551.67 102.962C1550.9 102.797 1549.99 102.66 1548.94 102.55C1547.95 102.44 1546.96 102.385 1545.97 102.385C1543.39 102.385 1541.19 102.687 1539.37 103.292C1537.56 103.843 1535.71 105.08 1533.84 107.006C1531.97 108.876 1530.46 111.489 1529.3 114.845C1528.15 118.201 1527.21 122.795 1526.5 128.626C1525.78 134.457 1525.43 141.444 1525.43 149.586C1525.43 157.893 1525.73 164.962 1526.33 170.793C1526.99 176.625 1527.82 181.246 1528.81 184.657C1529.8 188.013 1531.18 190.626 1532.94 192.496C1534.7 194.367 1536.46 195.577 1538.22 196.127C1539.98 196.677 1542.18 196.952 1544.82 196.952C1548.72 196.952 1552.19 196.43 1555.22 195.384C1555.27 195.384 1555.38 195.659 1555.55 196.209C1555.77 196.76 1555.88 197.062 1555.88 197.117V206.607C1555.88 206.662 1555.77 206.965 1555.55 207.515C1555.38 208.01 1555.27 208.285 1555.22 208.34C1551.86 209.605 1547.68 210.238 1542.67 210.238ZM1572.96 209C1572.46 209 1572.08 208.945 1571.8 208.835C1571.53 208.67 1571.28 208.285 1571.06 207.68C1570.89 207.075 1570.81 206.222 1570.81 205.122V94.2153C1570.81 92.62 1570.98 91.5747 1571.31 91.0796C1571.69 90.5845 1572.24 90.3369 1572.96 90.3369H1585.09C1585.53 90.3369 1585.89 90.4194 1586.16 90.5845C1586.44 90.6945 1586.66 91.0521 1586.82 91.6572C1587.04 92.2624 1587.15 93.1151 1587.15 94.2153V205.122C1587.15 206.717 1586.99 207.762 1586.66 208.257C1586.33 208.752 1585.8 209 1585.09 209H1572.96ZM1602.25 209C1601.43 209 1601.01 208.202 1601.01 206.607V205.204C1601.01 204.489 1601.04 204.021 1601.1 203.801L1619.66 94.4629C1620.1 91.8223 1621.12 90.4469 1622.72 90.3369H1639.47C1641.01 90.4469 1642 91.8223 1642.44 94.4629L1660.68 203.801C1660.68 203.966 1660.7 204.269 1660.76 204.709C1660.87 205.149 1660.92 205.534 1660.92 205.864C1660.98 206.194 1661.01 206.469 1661.01 206.689C1661.01 208.23 1660.54 209 1659.6 209H1645.99C1644.67 209 1643.81 207.872 1643.43 205.617L1640.38 184.574C1640.21 183.364 1639.91 182.759 1639.47 182.759H1619.5C1619.11 182.759 1618.81 183.391 1618.59 184.657L1615.12 205.534C1614.9 206.91 1614.63 207.845 1614.3 208.34C1613.97 208.78 1613.47 209 1612.81 209H1602.25ZM1621.89 172.444H1638.73C1639.11 172.444 1639.3 171.949 1639.3 170.958C1639.3 170.628 1639.25 170.381 1639.14 170.216L1630.97 106.593C1630.91 106.208 1630.83 106.016 1630.72 106.016C1630.56 106.016 1630.45 106.181 1630.39 106.511L1620.74 170.133C1620.68 170.518 1620.65 170.766 1620.65 170.876C1620.65 171.921 1621.07 172.444 1621.89 172.444ZM1698.06 89.0166C1708.4 89.0166 1716.46 92.785 1722.24 100.322C1722.79 101.037 1723.06 101.89 1723.06 102.88C1723.06 104.805 1722.24 106.841 1720.58 108.986C1718.99 111.132 1717.64 112.205 1716.54 112.205C1716.21 112.205 1715.96 112.095 1715.8 111.875C1710.9 105.933 1705.07 102.962 1698.3 102.962C1694.51 102.962 1691.46 104.585 1689.15 107.831C1686.83 111.022 1685.68 114.928 1685.68 119.549C1685.68 123.895 1686.67 127.443 1688.65 130.194C1690.63 132.944 1693.46 135.503 1697.15 137.868L1707.63 144.635C1718.69 151.786 1724.22 162.239 1724.22 175.992C1724.22 186.06 1721.66 194.284 1716.54 200.666C1711.43 207.047 1704.55 210.238 1695.91 210.238C1684.25 210.238 1675.06 205.204 1668.35 195.137C1668.02 194.642 1667.85 194.009 1667.85 193.239C1667.85 191.313 1668.63 189.223 1670.17 186.967C1671.76 184.657 1673.27 183.501 1674.7 183.501C1675.25 183.501 1675.75 183.749 1676.19 184.244C1682.35 192.111 1688.92 196.044 1695.91 196.044C1700.2 196.044 1703.56 194.394 1705.98 191.093C1708.4 187.737 1709.61 183.501 1709.61 178.385C1709.61 173.764 1708.65 170.023 1706.72 167.163C1704.8 164.247 1701.85 161.496 1697.89 158.911L1687.33 151.814C1685.02 150.274 1683.01 148.678 1681.31 147.028C1679.6 145.377 1677.95 143.397 1676.35 141.086C1674.81 138.721 1673.6 135.97 1672.72 132.834C1671.9 129.644 1671.49 126.15 1671.49 122.354C1671.49 112.452 1673.88 104.42 1678.67 98.2588C1683.51 92.0973 1689.97 89.0166 1698.06 89.0166ZM1777.03 195.879H1787.18C1791.41 195.879 1794.69 194.614 1797 192.083C1799.31 189.553 1801.01 184.932 1802.11 178.22C1803.27 171.454 1803.85 161.744 1803.85 149.091C1803.85 137.373 1803.19 128.103 1801.87 121.282C1800.6 114.46 1798.84 109.784 1796.59 107.253C1794.33 104.723 1791.39 103.458 1787.76 103.458H1776.95C1776.29 103.458 1775.96 104.063 1775.96 105.273V194.064C1775.96 195.274 1776.31 195.879 1777.03 195.879ZM1761.76 209C1761.05 209 1760.52 208.78 1760.19 208.34C1759.86 207.9 1759.7 206.91 1759.7 205.369V93.6377C1759.7 92.2624 1759.86 91.3822 1760.19 90.9971C1760.52 90.557 1761.05 90.3369 1761.76 90.3369H1790.15C1794.99 90.3369 1799.17 91.2996 1802.69 93.2251C1806.27 95.1506 1809.4 98.3138 1812.1 102.715C1814.79 107.116 1816.8 113.167 1818.12 120.869C1819.5 128.516 1820.19 137.841 1820.19 148.843C1820.19 156.655 1819.94 163.559 1819.44 169.556C1818.95 175.497 1818.29 180.613 1817.46 184.904C1816.69 189.14 1815.56 192.744 1814.08 195.714C1812.59 198.63 1811.05 200.968 1809.46 202.729C1807.86 204.434 1805.86 205.754 1803.43 206.689C1801.01 207.625 1798.65 208.257 1796.34 208.587C1794.08 208.862 1791.28 209 1787.92 209H1761.76ZM1839 209C1838.29 209 1837.76 208.807 1837.43 208.422C1837.1 207.982 1836.94 207.02 1836.94 205.534V93.8027C1836.94 92.3724 1837.1 91.4372 1837.43 90.9971C1837.76 90.557 1838.29 90.3369 1839 90.3369H1882.41C1882.85 90.3369 1883.2 90.3919 1883.48 90.502C1883.75 90.612 1883.97 90.9146 1884.14 91.4097C1884.36 91.9048 1884.47 92.6475 1884.47 93.6377V100.157C1884.47 101.532 1884.3 102.44 1883.97 102.88C1883.64 103.265 1883.12 103.458 1882.41 103.458H1854.18C1853.52 103.458 1853.19 104.365 1853.19 106.181V139.519C1853.19 140.014 1853.28 140.509 1853.44 141.004C1853.66 141.499 1853.85 141.747 1854.02 141.747H1876.71C1878.09 141.747 1878.77 143.012 1878.77 145.542V151.896C1878.77 154.427 1878.09 155.692 1876.71 155.692H1854.1C1853.88 155.692 1853.66 155.967 1853.44 156.518C1853.28 157.068 1853.19 157.618 1853.19 158.168V195.879H1882.65C1883.15 195.879 1883.53 195.934 1883.81 196.044C1884.08 196.154 1884.3 196.457 1884.47 196.952C1884.69 197.447 1884.8 198.19 1884.8 199.18V205.699C1884.8 207.075 1884.61 207.982 1884.22 208.422C1883.89 208.807 1883.37 209 1882.65 209H1839Z" fill="#404042"/>
<path d="M1146.76 234.395C1145.67 234.395 1145.13 233.233 1145.13 230.91C1145.13 230.402 1145.2 229.132 1145.35 227.099L1147.52 191.929C1147.81 187.936 1148.76 185.94 1150.35 185.94H1159.17C1159.9 185.94 1160.26 186.956 1160.26 188.989C1160.26 189.932 1160.12 191.275 1159.83 193.018L1152.97 230.148C1152.46 232.979 1151.77 234.395 1150.9 234.395H1146.76ZM1149.27 407.633C1145.35 407.633 1141.97 407.452 1139.14 407.089C1136.31 406.799 1133.37 406.145 1130.32 405.129C1127.27 404.04 1124.69 402.552 1122.59 400.665C1120.48 398.777 1118.41 396.236 1116.38 393.042C1114.42 389.776 1112.86 385.856 1111.7 381.283C1110.54 376.709 1109.59 371.193 1108.87 364.732C1108.22 358.271 1107.89 350.867 1107.89 342.519V254.539C1107.89 252.433 1108.11 251.054 1108.54 250.401C1109.05 249.748 1109.78 249.421 1110.72 249.421H1126.73C1127.31 249.421 1127.78 249.53 1128.14 249.748C1128.5 249.893 1128.79 250.365 1129.01 251.163C1129.3 251.962 1129.45 253.087 1129.45 254.539V341.866C1129.45 350.431 1129.7 357.618 1130.21 363.425C1130.72 369.233 1131.44 373.915 1132.39 377.472C1133.33 381.029 1134.64 383.751 1136.31 385.638C1138.05 387.453 1139.87 388.687 1141.75 389.34C1143.64 389.921 1146.11 390.211 1149.16 390.211C1153 390.211 1155.98 389.776 1158.09 388.905C1160.19 388.034 1162.11 385.965 1163.86 382.698C1165.6 379.432 1166.76 374.568 1167.34 368.107C1167.99 361.647 1168.32 352.9 1168.32 341.866V254.539C1168.32 252.361 1168.54 250.982 1168.97 250.401C1169.41 249.748 1170.1 249.421 1171.04 249.421H1187.16C1187.74 249.421 1188.17 249.53 1188.46 249.748C1188.83 249.893 1189.12 250.365 1189.34 251.163C1189.63 251.962 1189.77 253.087 1189.77 254.539V342.519C1189.77 350.94 1189.41 358.453 1188.68 365.059C1188.03 371.592 1187.12 377.145 1185.96 381.718C1184.8 386.219 1183.2 390.066 1181.17 393.26C1179.21 396.454 1177.18 398.995 1175.07 400.882C1173.04 402.697 1170.5 404.149 1167.45 405.238C1164.47 406.254 1161.64 406.907 1158.96 407.198C1156.27 407.488 1153.04 407.633 1149.27 407.633ZM1216.23 406C1215.29 406 1214.6 405.71 1214.16 405.129C1213.73 404.476 1213.51 403.06 1213.51 400.882V254.539C1213.51 252.361 1213.73 250.982 1214.16 250.401C1214.6 249.748 1215.29 249.421 1216.23 249.421H1232.24C1233.18 249.421 1233.87 249.748 1234.31 250.401C1234.74 250.982 1234.96 252.361 1234.96 254.539V386.292C1234.96 387.889 1235.47 388.687 1236.48 388.687H1264.79C1265.74 388.687 1266.43 388.941 1266.86 389.449C1267.3 389.957 1267.52 391.119 1267.52 392.934V401.645C1267.52 403.459 1267.3 404.657 1266.86 405.238C1266.43 405.746 1265.74 406 1264.79 406H1216.23ZM1295.39 406C1294.52 406 1293.83 405.673 1293.32 405.02C1292.89 404.294 1292.67 402.879 1292.67 400.773V269.674C1292.67 267.859 1292.27 266.952 1291.47 266.952H1272.53C1271.8 266.952 1271.26 266.915 1270.89 266.843C1270.6 266.698 1270.31 266.335 1270.02 265.754C1269.8 265.101 1269.69 264.121 1269.69 262.814V254.212C1269.69 252.252 1269.91 250.982 1270.35 250.401C1270.78 249.748 1271.51 249.421 1272.53 249.421H1334.05C1334.99 249.421 1335.68 249.748 1336.12 250.401C1336.55 250.982 1336.77 252.252 1336.77 254.212V262.814C1336.77 264.629 1336.55 265.79 1336.12 266.298C1335.75 266.734 1335.06 266.952 1334.05 266.952H1315.43C1314.63 266.952 1314.23 267.859 1314.23 269.674V400.773C1314.23 402.951 1313.97 404.367 1313.47 405.02C1313.03 405.673 1312.34 406 1311.4 406H1295.39ZM1354.95 406C1354.3 406 1353.79 405.927 1353.43 405.782C1353.07 405.564 1352.74 405.056 1352.45 404.258C1352.23 403.459 1352.12 402.334 1352.12 400.882V254.539C1352.12 252.433 1352.34 251.054 1352.77 250.401C1353.28 249.748 1354.01 249.421 1354.95 249.421H1370.96C1371.54 249.421 1372.01 249.53 1372.37 249.748C1372.74 249.893 1373.03 250.365 1373.25 251.163C1373.54 251.962 1373.68 253.087 1373.68 254.539V400.882C1373.68 402.987 1373.46 404.367 1373.03 405.02C1372.59 405.673 1371.9 406 1370.96 406H1354.95ZM1399.38 406C1397.64 406 1396.77 404.222 1396.77 400.665V400.12L1401.67 255.627C1401.74 251.635 1402.65 249.566 1404.39 249.421H1421.59C1422.68 249.493 1423.59 249.856 1424.31 250.51C1425.04 251.163 1425.58 252.506 1425.95 254.539L1444.35 357.545C1444.42 357.836 1444.53 358.054 1444.68 358.199C1444.89 358.344 1445.07 358.344 1445.22 358.199C1445.44 358.054 1445.55 357.836 1445.55 357.545L1464.06 254.865C1464.71 251.381 1466.13 249.566 1468.3 249.421H1485.73C1487.47 249.566 1488.34 251.635 1488.34 255.627L1493.46 400.12V400.773C1493.46 404.258 1492.55 406 1490.73 406H1478.76C1477.01 406 1476.07 404.04 1475.93 400.12L1472.55 288.293C1472.55 287.858 1472.44 287.604 1472.22 287.531C1472.01 287.459 1471.86 287.568 1471.79 287.858L1451.97 400.773C1451.39 404.258 1450.16 406 1448.27 406H1441.19C1439.45 406 1438.21 404.258 1437.49 400.773L1418.22 288.402C1418.14 287.967 1418 287.894 1417.78 288.185C1417.71 288.33 1417.67 288.548 1417.67 288.838L1414.19 400.12C1414.19 404.04 1413.35 406 1411.68 406H1399.38ZM1511.42 406C1510.33 406 1509.79 404.947 1509.79 402.842V400.991C1509.79 400.048 1509.83 399.431 1509.9 399.14L1534.4 254.865C1534.98 251.381 1536.32 249.566 1538.43 249.421H1560.53C1562.56 249.566 1563.87 251.381 1564.45 254.865L1588.51 399.14C1588.51 399.358 1588.55 399.757 1588.62 400.338C1588.77 400.919 1588.84 401.427 1588.84 401.862C1588.91 402.298 1588.95 402.661 1588.95 402.951C1588.95 404.984 1588.33 406 1587.1 406H1569.13C1567.39 406 1566.27 404.512 1565.76 401.536L1561.73 373.77C1561.51 372.173 1561.11 371.374 1560.53 371.374H1534.18C1533.67 371.374 1533.27 372.209 1532.98 373.878L1528.41 401.427C1528.12 403.242 1527.76 404.476 1527.32 405.129C1526.88 405.71 1526.23 406 1525.36 406H1511.42ZM1537.34 357.763H1559.55C1560.06 357.763 1560.31 357.11 1560.31 355.803C1560.31 355.368 1560.24 355.041 1560.1 354.823L1549.32 270.872C1549.24 270.363 1549.13 270.109 1548.99 270.109C1548.77 270.109 1548.63 270.327 1548.55 270.763L1535.81 354.714C1535.74 355.222 1535.7 355.549 1535.7 355.694C1535.7 357.074 1536.25 357.763 1537.34 357.763ZM1637.51 406C1636.5 406 1635.77 405.71 1635.34 405.129C1634.9 404.476 1634.68 403.06 1634.68 400.882V254.539C1634.68 252.361 1634.9 250.982 1635.34 250.401C1635.77 249.748 1636.5 249.421 1637.51 249.421H1653.3C1654.32 249.421 1655.04 249.748 1655.48 250.401C1655.92 250.982 1656.13 252.361 1656.13 254.539V312.466C1656.13 313.12 1656.24 313.7 1656.46 314.208C1656.75 314.717 1657 314.971 1657.22 314.971H1689.89C1690.11 314.971 1690.36 314.717 1690.65 314.208C1690.94 313.628 1691.09 313.011 1691.09 312.357V254.539C1691.09 252.433 1691.3 251.054 1691.74 250.401C1692.25 249.748 1692.97 249.421 1693.92 249.421H1709.92C1710.87 249.421 1711.56 249.748 1711.99 250.401C1712.43 250.982 1712.65 252.361 1712.65 254.539V400.882C1712.65 403.06 1712.43 404.476 1711.99 405.129C1711.56 405.71 1710.87 406 1709.92 406H1693.92C1693.26 406 1692.76 405.927 1692.39 405.782C1692.03 405.564 1691.7 405.056 1691.41 404.258C1691.12 403.459 1690.98 402.334 1690.98 400.882V334.353C1690.98 332.828 1690.58 332.066 1689.78 332.066H1657.44C1656.71 332.066 1656.35 332.828 1656.35 334.353V400.882C1656.35 402.987 1656.1 404.367 1655.59 405.02C1655.15 405.673 1654.46 406 1653.52 406H1637.51ZM1775.47 390.429C1780.55 390.429 1784.44 388.723 1787.12 385.312C1789.81 381.827 1791.77 375.584 1793 366.583C1794.24 357.509 1794.85 344.298 1794.85 326.948C1794.85 310.18 1794.27 297.476 1793.11 288.838C1791.95 280.2 1790.03 274.138 1787.34 270.654C1784.73 267.097 1780.81 265.318 1775.58 265.318C1770.5 265.318 1766.58 267.133 1763.82 270.763C1761.14 274.32 1759.21 280.454 1758.05 289.165C1756.89 297.875 1756.31 310.47 1756.31 326.948C1756.31 344.152 1756.93 357.291 1758.16 366.365C1759.39 375.367 1761.32 381.646 1763.93 385.203C1766.62 388.687 1770.46 390.429 1775.47 390.429ZM1775.58 407.633C1769.56 407.633 1764.44 406.98 1760.23 405.673C1756.09 404.367 1752.32 402.007 1748.9 398.596C1745.49 395.111 1742.81 390.32 1740.85 384.223C1738.89 378.125 1737.36 370.43 1736.27 361.139C1735.26 351.774 1734.75 340.378 1734.75 326.948C1734.75 316.205 1735.08 306.768 1735.73 298.638C1736.46 290.507 1737.58 283.502 1739.1 277.623C1740.7 271.743 1742.55 266.879 1744.66 263.032C1746.76 259.184 1749.41 256.136 1752.61 253.885C1755.8 251.562 1759.21 249.965 1762.84 249.094C1766.47 248.151 1770.72 247.679 1775.58 247.679C1781.46 247.679 1786.47 248.368 1790.61 249.748C1794.82 251.054 1798.63 253.413 1802.04 256.825C1805.45 260.237 1808.18 264.955 1810.21 270.98C1812.24 276.933 1813.76 284.519 1814.78 293.738C1815.87 302.884 1816.41 313.954 1816.41 326.948C1816.41 340.45 1815.91 351.883 1814.89 361.248C1813.87 370.612 1812.39 378.343 1810.43 384.44C1808.47 390.538 1805.78 395.293 1802.37 398.705C1798.96 402.044 1795.15 404.367 1790.94 405.673C1786.8 406.98 1781.68 407.633 1775.58 407.633ZM1841.24 406C1840.3 406 1839.61 405.71 1839.17 405.129C1838.74 404.476 1838.52 403.133 1838.52 401.1V254.43C1838.52 252.252 1838.74 250.873 1839.17 250.292C1839.61 249.711 1840.3 249.421 1841.24 249.421H1877.83C1882.4 249.421 1886.28 249.675 1889.48 250.183C1892.74 250.691 1896.08 251.78 1899.5 253.45C1902.91 255.119 1905.63 257.442 1907.66 260.418C1909.77 263.395 1911.47 267.46 1912.78 272.614C1914.16 277.768 1914.85 283.974 1914.85 291.233C1914.85 296.678 1914.45 301.432 1913.65 305.498C1912.85 309.49 1911.65 312.757 1910.06 315.297C1908.46 317.765 1906.72 319.725 1904.83 321.177C1903.02 322.629 1900.8 323.863 1898.19 324.879C1897.97 325.097 1897.86 325.315 1897.86 325.533C1897.86 325.75 1897.97 325.932 1898.19 326.077C1900.8 327.311 1902.91 328.582 1904.5 329.888C1906.17 331.195 1907.84 333.118 1909.51 335.659C1911.18 338.127 1912.45 341.503 1913.32 345.786C1914.19 350.069 1914.74 355.331 1914.96 361.574C1915.25 367.236 1915.39 380.23 1915.39 400.556C1915.39 404.185 1914.74 406 1913.43 406C1902.18 406.073 1896.41 406.109 1896.12 406.109C1894.96 406.109 1894.34 404.476 1894.27 401.209C1894.27 400.701 1894.05 392.571 1893.62 376.818C1893.18 361.066 1892.71 351.992 1892.2 349.597C1891.98 346.62 1891.36 344.152 1890.35 342.192C1889.4 340.16 1888.13 338.708 1886.54 337.837C1885.01 336.893 1883.49 336.276 1881.96 335.986C1880.44 335.623 1878.7 335.441 1876.74 335.441H1861.17C1860.37 335.441 1859.97 336.24 1859.97 337.837V401.1C1859.97 403.133 1859.75 404.476 1859.32 405.129C1858.88 405.71 1858.19 406 1857.25 406H1841.24ZM1861.06 318.455H1875.1C1887.23 318.455 1893.29 309.635 1893.29 291.996C1893.29 282.631 1891.62 276.098 1888.28 272.396C1885.01 268.621 1879.5 266.734 1871.73 266.734H1861.17C1860.37 266.734 1859.97 267.46 1859.97 268.912V315.515C1859.97 317.475 1860.33 318.455 1861.06 318.455ZM1933.9 406C1932.81 406 1932.27 404.947 1932.27 402.842V400.991C1932.27 400.048 1932.31 399.431 1932.38 399.14L1956.88 254.865C1957.46 251.381 1958.8 249.566 1960.91 249.421H1983.01C1985.04 249.566 1986.35 251.381 1986.93 254.865L2011 399.14C2011 399.358 2011.03 399.757 2011.1 400.338C2011.25 400.919 2011.32 401.427 2011.32 401.862C2011.39 402.298 2011.43 402.661 2011.43 402.951C2011.43 404.984 2010.81 406 2009.58 406H1991.61C1989.87 406 1988.75 404.512 1988.24 401.536L1984.21 373.77C1983.99 372.173 1983.59 371.374 1983.01 371.374H1956.66C1956.15 371.374 1955.75 372.209 1955.46 373.878L1950.89 401.427C1950.6 403.242 1950.24 404.476 1949.8 405.129C1949.37 405.71 1948.71 406 1947.84 406H1933.9ZM1959.82 357.763H1982.03C1982.54 357.763 1982.79 357.11 1982.79 355.803C1982.79 355.368 1982.72 355.041 1982.58 354.823L1971.8 270.872C1971.72 270.363 1971.61 270.109 1971.47 270.109C1971.25 270.109 1971.11 270.327 1971.03 270.763L1958.29 354.714C1958.22 355.222 1958.19 355.549 1958.19 355.694C1958.19 357.074 1958.73 357.763 1959.82 357.763Z" fill="#404042"/>
<path d="M1155.5 152.5V42H1972.5V231" stroke="#CA0032" stroke-width="10"/>
<path d="M1973 424.5L1973 481L1156 481L1156 432.474" stroke="#CA0032" stroke-width="10"/>
<defs>
<filter id="filter0_i_45_104" x="161.201" y="440.31" width="278.234" height="159.689" filterUnits="userSpaceOnUse" color-interpolation-filters="sRGB">
<feFlood flood-opacity="0" result="BackgroundImageFix"/>
<feBlend mode="normal" in="SourceGraphic" in2="BackgroundImageFix" result="shape"/>
<feColorMatrix in="SourceAlpha" type="matrix" values="0 0 0 0 0 0 0 0 0 0 0 0 0 0 0 0 0 0 127 0" result="hardAlpha"/>
<feOffset dy="4"/>
<feGaussianBlur stdDeviation="2"/>
<feComposite in2="hardAlpha" operator="arithmetic" k2="-1" k3="1"/>
<feColorMatrix type="matrix" values="0 0 0 0 0 0 0 0 0 0 0 0 0 0 0 0 0 0 0.25 0"/>
<feBlend mode="normal" in2="shape" result="effect1_innerShadow_45_104"/>
</filter>
<filter id="filter1_d_45_104" x="157.201" y="47.6562" width="732.745" height="437.178" filterUnits="userSpaceOnUse" color-interpolation-filters="sRGB">
<feFlood flood-opacity="0" result="BackgroundImageFix"/>
<feColorMatrix in="SourceAlpha" type="matrix" values="0 0 0 0 0 0 0 0 0 0 0 0 0 0 0 0 0 0 127 0" result="hardAlpha"/>
<feOffset dy="4"/>
<feGaussianBlur stdDeviation="2"/>
<feComposite in2="hardAlpha" operator="out"/>
<feColorMatrix type="matrix" values="0 0 0 0 0 0 0 0 0 0 0 0 0 0 0 0 0 0 0.25 0"/>
<feBlend mode="normal" in2="BackgroundImageFix" result="effect1_dropShadow_45_104"/>
<feBlend mode="normal" in="SourceGraphic" in2="effect1_dropShadow_45_104" result="shape"/>
</filter>
<filter id="filter2_d_45_104" x="329.378" y="339.863" width="310.331" height="263.681" filterUnits="userSpaceOnUse" color-interpolation-filters="sRGB">
<feFlood flood-opacity="0" result="BackgroundImageFix"/>
<feColorMatrix in="SourceAlpha" type="matrix" values="0 0 0 0 0 0 0 0 0 0 0 0 0 0 0 0 0 0 127 0" result="hardAlpha"/>
<feOffset dy="4"/>
<feGaussianBlur stdDeviation="2"/>
<feComposite in2="hardAlpha" operator="out"/>
<feColorMatrix type="matrix" values="0 0 0 0 0 0 0 0 0 0 0 0 0 0 0 0 0 0 0.25 0"/>
<feBlend mode="normal" in2="BackgroundImageFix" result="effect1_dropShadow_45_104"/>
<feBlend mode="normal" in="SourceGraphic" in2="effect1_dropShadow_45_104" result="shape"/>
</filter>
<filter id="filter3_di_45_104" x="325.378" y="463.617" width="121.308" height="142.93" filterUnits="userSpaceOnUse" color-interpolation-filters="sRGB">
<feFlood flood-opacity="0" result="BackgroundImageFix"/>
<feColorMatrix in="SourceAlpha" type="matrix" values="0 0 0 0 0 0 0 0 0 0 0 0 0 0 0 0 0 0 127 0" result="hardAlpha"/>
<feOffset dy="3"/>
<feGaussianBlur stdDeviation="4"/>
<feComposite in2="hardAlpha" operator="out"/>
<feColorMatrix type="matrix" values="0 0 0 0 0 0 0 0 0 0 0 0 0 0 0 0 0 0 0.25 0"/>
<feBlend mode="normal" in2="BackgroundImageFix" result="effect1_dropShadow_45_104"/>
<feBlend mode="normal" in="SourceGraphic" in2="effect1_dropShadow_45_104" result="shape"/>
<feColorMatrix in="SourceAlpha" type="matrix" values="0 0 0 0 0 0 0 0 0 0 0 0 0 0 0 0 0 0 127 0" result="hardAlpha"/>
<feOffset dx="-2" dy="3"/>
<feGaussianBlur stdDeviation="3.5"/>
<feComposite in2="hardAlpha" operator="arithmetic" k2="-1" k3="1"/>
<feColorMatrix type="matrix" values="0 0 0 0 0 0 0 0 0 0 0 0 0 0 0 0 0 0 0.25 0"/>
<feBlend mode="normal" in2="shape" result="effect2_innerShadow_45_104"/>
</filter>
<linearGradient id="paint0_linear_45_104" x1="274.28" y1="447.157" x2="546.172" y2="608.015" gradientUnits="userSpaceOnUse">
<stop offset="0.235577" stop-color="#404042"/>
<stop offset="1" stop-color="#A3A3A8"/>
</linearGradient>
<linearGradient id="paint1_linear_45_104" x1="626.642" y1="371.823" x2="355.566" y2="423.273" gradientUnits="userSpaceOnUse">
<stop stop-color="#FF003F"/>
<stop offset="1" stop-color="#990026"/>
</linearGradient>
<linearGradient id="paint2_linear_45_104" x1="438.449" y1="595.543" x2="375.355" y2="497.647" gradientUnits="userSpaceOnUse">
<stop offset="0.110577" stop-color="#950A27"/>
<stop offset="1" stop-color="#43000E"/>
</linearGradient>
</defs>
</svg>
